{"title":"Crisis S01E06 1080i (FOX HD rip)","uid":10109915,"size":3524540950,"categoryP":"video","categoryS":"hd___tv_shows","magnet":"?xt=urn:btih:a60e67a23dfae7e190381355466f6bebaa84552b&amp;dn=Crisis+S01E06+1080i+%28FOX+HD+rip%29+&amp;tr=udp%3A%2F%2Ftracker.openbittorrent.com%3A80&amp;tr=udp%3A%2F%2Fopen.demonii.com%3A1337&amp;tr=udp%3A%2F%2Ftracker.coppersurfer.tk%3A6969&amp;tr=udp%3A%2F%2Fexodus.desync.com%3A6969","seeders":1,"leechers":0,"uploader":"VEG6","files":-1,"time":1399502908,"description":"Crisis S01E06 (bulgarian audio)\n\nThere is no english audio, direct rip from FOX HD (Bulgaria) !\n\n\nMediainfo:\n\nGeneral\nID : 1 (0x1)\nComplete name : E:Crisis S01E06Crisis S01E06 (1080i_bugaian audio_ FOX HD rip by VEG).ts\nFormat : MPEG-TS\nFile size : 3.28 GiB\nDuration : 40mn 59s\nOverall bit rate mode : Variable\nOverall bit rate : 11.5 Mbps\n\nVideo\nID : 513 (0x201)\nMenu ID : 1 (0x1)\nFormat : AVC\nFormat/Info : Advanced Video Codec\nFormat profile : &lt;a class=&quot;__cf_email__&quot; href=&quot;/cdn-cgi/l/email-protection&quot; data-cfemail=&quot;f0b8999798b0bcc4dec0&quot;&gt;[email&amp;#160;protected]&lt;/a&gt;&lt;script cf-hash='f9e31' type=&quot;text/javascript&quot;&gt;\n/* &lt;![CDATA[ */!function(){try{var t=&quot;currentScript&quot;in document?document.currentScript:function(){for(var t=document.getElementsByTagName(&quot;script&quot;),e=t.length;e--;)if(t[e].getAttribute(&quot;cf-hash&quot;))return t[e]}();if(t&amp;&amp;t.previousSibling){var e,r,n,i,c=t.previousSibling,a=c.getAttribute(&quot;data-cfemail&quot;);if(a){for(e=&quot;&quot;,r=parseInt(a.substr(0,2),16),n=2;a.length-n;n+=2)i=parseInt(a.substr(n,2),16)^r,e+=String.fromCharCode(i);e=document.createTextNode(e),c.parentNode.replaceChild(e,c)}}}catch(u){}}();/* ]]&gt; */&lt;/script&gt;\nFormat settings, CABAC : Yes\nFormat settings, ReFrames : 2 frames\nCodec ID : 27\nDuration : 40mn 59s\nBit rate : 10.6 Mbps\nWidth : 1 920 pixels\nHeight : 1 080 pixels\nDisplay aspect ratio : 16:9\nFrame rate : 25.000 fps\nColor space : YUV\nChroma subsampling : 4:2:0\nBit depth : 8 bits\nScan type : Interlaced\nScan order : Top Field First\nBits/(Pixel*Frame) : 0.204\nStream size : 3.03 GiB (92%)\n\nAudio\nID : 2501 (0x9C5)\nMenu ID : 1 (0x1)\nFormat : MPEG Audio\nFormat version : Version 1\nFormat profile : Layer 2\nCodec ID : 3\nDuration : 40mn 59s\nBit rate mode : Constant\nBit rate : 320 Kbps\nChannel(s) : 2 channels\nSampling rate : 48.0 KHz\nCompression mode : Lossy\nStream size : 93.8 MiB (3%)\nLanguage : Bulgarian\n---------------------------\nmore episodes: http://thepiratebay.se/search/crisis%20fox%20hd/0/99/0","torrent":{"xt":"urn:btih:a60e67a23dfae7e190381355466f6bebaa84552b","amp;dn":"Crisis+S01E06+1080i+%28FOX+HD+rip%29+","amp;tr":["udp%3A%2F%2Ftracker.openbittorrent.com%3A80","udp%3A%2F%2Fopen.demonii.com%3A1337","udp%3A%2F%2Ftracker.coppersurfer.tk%3A6969","udp%3A%2F%2Fexodus.desync.com%3A6969"],"infoHash":"a60e67a23dfae7e190381355466f6bebaa84552b","infoHashBuffer":{"type":"Buffer","data":[166,14,103,162,61,250,231,225,144,56,19,85,70,111,107,235,170,132,85,43]},"announce":[],"urlList":[]}}